!NEDERLANDSTALIGE TORRENTS ZIJN VEEL MINDER BESCHIKBAAR EN DAAROM VRAGEN WIJ U ZO LANG MOGELIJK DOOR TE SEEDEN!
!WIJ BRENGEN U DE FILMS, HELPT U ONS DAN A.U.B. OM DE TORRENTS LEVEND TE HOUDEN DOOR TE SEEDEN EN NIET GELIJK AF TE HAKEN ALS DE DOWNLOAD COMPLEET IS!


Dutch Blu-Ray Quality (DBQ) presenteert 'Verschrikkelijke Ikke' (Despicable Me)

In 1080p (1920x1040).

Een kwaliteitsvoorbeelden (sample) zijn toegevoegd in de vorm van een video en losse foto's.
Meer details over de kwaliteit zijn hieronder te vinden.

[img]http://img823.imageshack.us/img823/6269/verschrikkelijkeikkeblu.jpg[/img]


Film informatie:
 
http://www.moviemeter.nl/film/58983 
http://www.imdb.com/title/tt1323594/


Gru (Steve Carrell) is een duivels meesterbrein dat geniet van alles wat slecht is en van plan is om de maan te stelen. 
Hij verslaat iedereen die hem in de weg zit met zijn wapenverzameling van krimp- en vriesstralen en zijn gevechtsklare land- en luchtvoertuigen. 
Maar dan ontmoet hij op een dag drie kleine eigenwijze weesmeisjes die naar hem kijken en iets in hem zien wat nog nooit iemand heeft gezien: een mogelijke papa. 
’s Werelds grootste schurk heeft zojuist zijn grootste uitdaging gevonden: drie kleine meisjes die Margo, Edith en Agnes heten.


Kwaliteitsinformatie:


General
Complete name                    : Verschrikkelijke Ikke(Despicable Me).2010.1080p.BDRip.H264.DutchBlu-RayQuality(NL Spoken).mp4
Format                           : MPEG-4

Format profile                   : Base Media
Codec ID                         : isom
File size                        : 2.75 GiB
Language                         : Dutch
Duration                         : 1h 34mn
Overall bit rate                 : 4 153 Kbps

Video
ID                               : 1
Format                           : AVC
Format/Info                      : Advanced Video Codec
Format profile                   : High@L4.0
Format settings, CABAC           : Yes
Format settings, ReFrames        : 3 frames
Codec ID                         : avc1
Codec ID/Info                    : Advanced Video Coding
Duration                         : 1h 34mn
Bit rate mode                    : Variable
Bit rate                         : 3 896 Kbps
Maximum bit rate                 : 25.0 Mbps
Width                            : 1 920 pixels
Height                           : 1 040 pixels
Display aspect ratio             : 16:9
Frame rate mode                  : Constant
Frame rate                       : 23.976 fps
Color space                      : YUV
Chroma subsampling               : 4:2:0
Bit depth                        : 8 bits
Scan type                        : Progressive
Bits/(Pixel*Frame)               : 0.081
Stream size                      : 2.58 GiB (94%)
Title                            : Despicable Me
Writing library                  : x264 core 104 r1683 62997d6

Audio
ID                               : 2
Language                         : Dutch
Format                           : MPEG Audio
Format version                   : Version 1
Format profile                   : Layer 3
Codec ID                         : 6B
Duration                         : 1h 34mn
Bit rate mode                    : Constant
Bit rate                         : 256 Kbps
Maximum bit rate                 : 267 Kbps
Channel(s)                       : 2 channels
Sampling rate                    : 44.1 KHz
Stream size                      : 173 MiB (6%)



!NEDERLANDSTALIGE TORRENTS ZIJN VEEL MINDER BESCHIKBAAR EN DAAROM VRAGEN WIJ U ZO LANG MOGELIJK DOOR TE SEEDEN!
!WIJ BRENGEN U DE FILMS, HELPT U ONS DAN A.U.B. OM DE TORRENTS LEVEND TE HOUDEN DOOR TE SEEDEN EN NIET GELIJK AF TE HAKEN ALS DE DOWNLOAD COMPLEET IS!

VEEL PLEZIER MET DE FILM :)


